<svg enable-background="new 0 0 140 140" height="512" viewBox="0 0 140 140" width="512" xmlns="http://www.w3.org/2000/svg"><circle cx="70" cy="70" fill="#4da0dc" r="64"/><path d="m103.9414749 38.3551025-.0400391-.0300293c-.289978-.25-.6599731-.3999634-1.0699463-.3999634h-65.6700439c-.9099731 0-1.6499634.7399902-1.6499634 1.6499634v5.1400146l-4.3900127 14.7000122v2.2199707c0 .9200439.2999878 1.7800293.789978 2.4800415l.0300293.039978c.2799664.3800049.6099834.710022.9899883.9799805l3.9899902 3.9900513v28.0299683h-2.5499878c-1.3599854 0-2.4600201 1.1000366-2.4600201 2.460022 0 .6300049.2499981 1.2000122.6400127 1.6400146h-.0100098l.0599976.0599976c.0200195.0299683.0499878.0499878.0700073.0799561l33.1212158 32.4521484c1.3922732.0904541 2.7921755.152771 4.2073366.152771 35.3463135 0 64.0000076-28.6538086 64.0000076-64 0-.4030762-.0229492-.8004761-.0303955-1.2017822l-29.9081497-30.3231201z" opacity=".1"/><path d="m36.92551 48.713135h66.148979v49.531845h-66.148979z" fill="#ededed"/><path d="m44.253025 73.479057h13.969659v23.673801h-13.969659z" fill="#4abba4"/><path d="m65.610062 73.479057h30.230364v18.688715h-30.230364z" fill="#4abba4"/><path d="m108.8814774 59.4151001v2.2199707c0 2.3800049-1.9400024 4.3200073-4.3200073 4.3200073-2.3900146 0-4.3200073-1.9400024-4.3200073-4.3200073v-2.2199707l-3.4199829-14.7000122h-7.6600342l2.4400024 14.7000122v2.2199707c0 2.3800049-1.9400024 4.3200073-4.3200073 4.3200073-2.3899536 0-4.3200073-1.9400024-4.3200073-4.3200073v-2.2199707l-1.4699707-14.7000122h-7.6599731l.4899902 14.7000122v2.2199707c0 2.3800049-1.9400024 4.3200073-4.3200073 4.3200073-2.3900146 0-4.3200073-1.9400024-4.3200073-4.3200073v-2.2199707l.4899902-14.7000122h-7.6699829l-1.460022 14.7000122v2.2199707c0 2.3800049-1.9400024 4.3200073-4.3200073 4.3200073-2.3899536 0-4.3200073-1.9400024-4.3200073-4.3200073v-2.2199707l2.4400024-14.7000122h-7.6599731l-3.4199829 14.7000122v2.2199707c0 2.3800049-1.9299927 4.3200073-4.3200073 4.3200073s-4.3200054-1.9400024-4.3200054-4.3200073v-2.2199707l4.3900127-14.7000122v-5.1400146c0-.9099731.7399902-1.6499634 1.6499634-1.6499634h65.6700439c.9199829 0 1.6499634.7399902 1.6499634 1.6499634v5.1400146z" fill="#feda6f"/><path d="m37.1637688 37.9260521c-.9110107 0-1.6497803.7385254-1.6497803 1.6496582v5.1374512h7.6635742v-6.7871094z" fill="#fed35b"/><path d="m50.841152 37.925999h7.66354v6.787135h-7.66354z" fill="#fed35b"/><path d="m66.168228 37.925999h7.66354v6.787135h-7.66354z" fill="#fed35b"/><path d="m81.495308 37.925999h7.66354v6.787135h-7.66354z" fill="#fed35b"/><path d="m58.5014725 37.9251099h7.6699829v6.789978l-.4899902 14.7000122v2.2199707c0 2.3800049-1.9400024 4.3200073-4.3200073 4.3200073-2.3900146 0-4.3200073-1.9400024-4.3200073-4.3200073v-2.2199707l1.460022-14.7000122v-6.789978z" fill="#de594e"/><path d="m100.2414627 59.4151001v2.2199707c0 2.3800049-1.9400024 4.3200073-4.3200073 4.3200073-2.3900146 0-4.3200073-1.9400024-4.3200073-4.3200073v-2.2199707l-2.4400024-14.7000122v-6.789978h7.6600342v6.789978z" fill="#de594e"/><path d="m43.1814651 37.9251099h7.6599731v6.789978l-2.4400024 14.7000122v2.2199707c0 2.3800049-1.9299927 4.3200073-4.3199463 4.3200073-2.3900146 0-4.3200073-1.9400024-4.3200073-4.3200073v-2.2199707l3.4199829-14.7000122z" fill="#de594e"/><path d="m81.4914627 44.7150879 1.4699707 14.7000122v2.2199707c0 2.3800049-1.9399414 4.3200073-4.3199463 4.3200073-2.3900146 0-4.3200073-1.9400024-4.3200073-4.3200073v-2.2199707l-.4899902-14.7000122v-6.789978h7.6599731z" fill="#de594e"/><g fill="#a64139"><path d="m39.7610588 59.4199486v2.2104492c0 2.3857384 1.934082 4.3198204 4.3198242 4.3198204s4.3198242-1.934082 4.3198242-4.3198204v-2.2104492z"/><path d="m57.0403557 59.4199486v2.2104492c0 2.3857384 1.934082 4.3198204 4.3198242 4.3198204s4.3198204-1.934082 4.3198204-4.3198204v-2.2104492z"/><path d="m74.3196487 59.4199486v2.2104492c0 2.3857384 1.934082 4.3198204 4.3198242 4.3198204s4.3198242-1.934082 4.3198242-4.3198204v-2.2104492z"/><path d="m91.5989456 59.4199486v2.2104492c0 2.3857384 1.934082 4.3198204 4.3198242 4.3198204s4.3198242-1.934082 4.3198242-4.3198204v-2.2104492z"/><path d="m43.177612 37.925999h7.66354v6.787135h-7.66354z"/><path d="m58.504692 37.925999h7.66354v6.787135h-7.66354z"/><path d="m73.831772 37.925999h7.66354v6.787135h-7.66354z"/><path d="m89.158852 37.925999h7.66354v6.787135h-7.66354z"/></g><g fill="#fed35b"><path d="m102.8362503 37.9260521h-6.013916v6.7871094h7.6635742v-5.1374512c0-.9111328-.7385254-1.6496582-1.6496582-1.6496582z"/><path d="m31.1214104 59.4199486v2.2104492c0 2.3857384 1.934082 4.3198204 4.3198242 4.3198204s4.3198242-1.934082 4.3198242-4.3198204v-2.2104492z"/><path d="m48.4007072 59.4199486v2.2104492c0 2.3857384 1.934082 4.3198204 4.3198242 4.3198204s4.3198242-1.934082 4.3198242-4.3198204v-2.2104492z"/><path d="m65.6800003 59.4199486v2.2104492c0 2.3857384 1.934082 4.3198204 4.3198242 4.3198204s4.3198242-1.934082 4.3198242-4.3198204v-2.2104492z"/><path d="m82.9592972 59.4199486v2.2104492c0 2.3857384 1.934082 4.3198204 4.3198242 4.3198204s4.3198242-1.934082 4.3198242-4.3198204v-2.2104492z"/><path d="m100.2385941 59.4199486v2.2104492c0 2.3857384 1.934082 4.3198204 4.3198242 4.3198204s4.3198242-1.934082 4.3198242-4.3198204v-2.2104492z"/><path d="m105.6328735 97.1528549h-71.265747c-1.3588867 0-2.4605694 1.1015625-2.4605694 2.4604492s1.1016827 2.4606934 2.4605694 2.4606934h71.2657471c1.3590088 0 2.4605713-1.1018066 2.4605713-2.4606934s-1.1015626-2.4604492-2.4605714-2.4604492z"/></g></svg>